<svg width="527" height="383" viewBox="0 0 527 383" fill="none" xmlns="http://www.w3.org/2000/svg">
<path d="M116.36 8.4018C123.419 4.71117 136.36 12.4018 136.36 12.4018L329.359 145.902C329.359 145.902 344.418 156.402 346.36 159.402C348.303 162.402 348.304 181.402 348.304 181.402L348.304 304.902C348.304 304.902 350.36 319.902 334.36 323.402C318.36 326.902 317.86 321.902 317.86 321.902C289.118 304.776 217.077 250.449 178.36 221.402L136.36 248.902C136.36 248.902 124.128 257.528 116.86 254.402C109.716 251.329 107.86 238.402 107.86 238.402L107.86 25.4018C107.86 25.4018 109.782 11.8411 116.36 8.4018Z" fill="white"/>
<path d="M409.973 8.4018C402.914 4.71117 389.973 12.4018 389.973 12.4018L196.974 145.902C196.974 145.902 181.915 156.402 179.973 159.402C178.03 162.402 178.029 181.402 178.029 181.402L178.029 304.902C178.029 304.902 175.973 319.902 191.973 323.402C207.973 326.902 208.473 321.902 208.473 321.902C237.215 304.776 309.256 250.449 347.973 221.402L389.973 248.902C389.973 248.902 402.205 257.528 409.473 254.402C416.617 251.329 418.473 238.402 418.473 238.402L418.474 25.4018C418.474 25.4018 416.551 11.8411 409.973 8.4018Z" fill="white"/>
<path d="M263.5 100L279.5 89L343.5 131.5C343.5 131.5 355.611 139.119 360.5 146.5C364.225 152.123 367 162.5 367 162.5L366 233.5L348.5 221.5L349 172C349 172 348.965 163.261 346.5 158.5C344.947 155.5 331.5 146.5 331.5 146.5L263.5 100Z" fill="#E0E0E0"/>
<path d="M178 221.5L263 284.5L247.5 295.5L178 246V221.5Z" fill="#E1E1E1"/>
</svg>
